<svg xmlns="http://www.w3.org/2000/svg" x="0px" y="0px" viewBox="7.170800476074219 6.401450424194336 33.658395233154295 35.19714874267578" enable-background="new 0 0 48 48">
<g>
	
		<path fill="#02000000" stroke="#000000" stroke-width="0.94" stroke-linecap="round" stroke-linejoin="round" stroke-miterlimit="10" d="   M13.1562,31.6144h-2.8102c-1.494,0-2.7052,1.2112-2.7052,2.7052v4.1037c0,1.494,1.2112,2.7052,2.7052,2.7052h2.8102   c1.494,0,2.7052-1.2112,2.7052-2.7052v-4.1037C15.8614,32.8256,14.6502,31.6144,13.1562,31.6144z"/>
	
		<path fill="#02000000" stroke="#000000" stroke-width="0.94" stroke-linecap="round" stroke-linejoin="round" stroke-miterlimit="10" d="   M24.8907,26.6529h-2.8102c-1.494,0-2.7052,1.2112-2.7052,2.7052v9.0652c0,1.494,1.2112,2.7052,2.7052,2.7052h2.8102   c1.494,0,2.7052-1.2112,2.7052-2.7052v-9.0652C27.5959,27.8641,26.3848,26.6529,24.8907,26.6529z"/>
	
		<path fill="#02000000" stroke="#000000" stroke-width="0.94" stroke-linecap="round" stroke-linejoin="round" stroke-miterlimit="10" d="   M36.6253,21.5981H33.815c-1.494,0-2.7052,1.2112-2.7052,2.7052v14.1201c0,1.494,1.2112,2.7052,2.7052,2.7052h2.8102   c1.494,0,2.7052-1.2112,2.7052-2.7052V24.3033C39.3305,22.8092,38.1193,21.5981,36.6253,21.5981z"/>
</g>
<g>
	<path fill="none" stroke="#000000" stroke-width="0.94" stroke-linecap="round" stroke-linejoin="round" stroke-miterlimit="10" d="   M31.7429,13.0906l-11.0481,8.3646c-0.2179,0.1514-0.5153,0.1115-0.6857-0.0919l-1.4568-1.5259   c-0.1702-0.2032-0.4672-0.2432-0.6851-0.0923l-5.9094,4.0845"/>
</g>
<g>
	<g>
	</g>
	
		<path fill="#02000000" stroke="#000000" stroke-width="0.94" stroke-linecap="round" stroke-linejoin="round" stroke-miterlimit="10" d="   M35.9254,7.5103l0.5313,1.6353c0.1769,0.5445,0.6843,0.9131,1.2568,0.9131h1.7194c0.8956,0,1.268,1.146,0.5434,1.6725   l-1.3911,1.0107c-0.4632,0.3365-0.657,0.933-0.4801,1.4775l0.5313,1.6353c0.2768,0.8518-0.6981,1.5601-1.4227,1.0336   l-1.3911-1.0107c-0.4632-0.3365-1.0904-0.3365-1.5535,0l-1.3911,1.0107c-0.7245,0.5264-1.6994-0.1819-1.4227-1.0336l0.5313-1.6353   c0.1769-0.5445-0.0169-1.141-0.4801-1.4775l-1.3911-1.0107c-0.7246-0.5264-0.3522-1.6725,0.5434-1.6725h1.7194   c0.5725,0,1.0799-0.3687,1.2568-0.9131l0.5313-1.6353C34.4436,6.6585,35.6486,6.6585,35.9254,7.5103z"/>
</g>
</svg>