<svg xmlns="http://www.w3.org/2000/svg" x="0px" y="0px" viewBox="11.310626029968262 20.465625762939453 41.378746032714844 23.0684814453125" enable-background="new 0 0 64 64">
<g>
	<g>
	</g>
	
		<path fill="#09710D00" stroke="#000000" stroke-width="1" stroke-linecap="round" stroke-linejoin="round" stroke-miterlimit="10" d="   M17.966,32.845l13.152,9.353c1.602,1.139,3.756,1.112,5.328-0.067l6.151-4.612c0.861-0.646,0.873-1.933,0.024-2.594l-10.564-8.227   l-9.111-0.761L17.966,32.845z"/>
	
		<path fill="#09710D00" stroke="#000000" stroke-width="1" stroke-linecap="round" stroke-linejoin="round" stroke-miterlimit="10" d="   M12.606,31.341l2.688,1.937c0.858,0.618,2.054,0.424,2.672-0.434l4.979-6.908c0.618-0.858,0.424-2.054-0.434-2.672l-2.688-1.937   c-0.858-0.618-2.054-0.424-2.672,0.434l-4.979,6.908C11.554,29.527,11.748,30.723,12.606,31.341z"/>
</g>
<g>
	
		<path fill="#09710D00" stroke="#000000" stroke-width="1" stroke-linecap="round" stroke-linejoin="round" stroke-miterlimit="10" d="   M51.394,31.341l-2.688,1.937c-0.858,0.618-2.054,0.424-2.672-0.434l-4.979-6.908c-0.618-0.858-0.424-2.054,0.434-2.672l2.688-1.937   c0.858-0.618,2.054-0.424,2.672,0.434l4.979,6.908C52.446,29.527,52.252,30.723,51.394,31.341z"/>
	
		<path fill="#09710D00" stroke="#000000" stroke-width="1" stroke-linecap="round" stroke-linejoin="round" stroke-miterlimit="10" d="   M46.029,32.837l-3.124,2.407l-6.434-4.147c-0.699-0.451-1.598-0.43-2.272,0.059c-1.373,0.996-3.862,2.359-5.978,1.113   c-1.01-0.595-1.012-1.781-0.089-2.503l4.57-3.573c0.338-0.264,0.783-0.351,1.195-0.233l5.158,1.477l2.346-1.019L46.029,32.837z"/>
	
		<path fill="#09710D00" stroke="#000000" stroke-width="1" stroke-linecap="round" stroke-linejoin="round" stroke-miterlimit="10" d="   M22.006,36.224l0.689-0.639c0.272-0.252,0.623-0.394,0.994-0.396c0.843-0.005,2.43,0.224,4.105,1.704   c1.175,1.039,1.977,1.913,2.494,2.542c0.481,0.586,0.443,1.436-0.09,1.976l-0.713,0.722c-0.537,0.543-1.386,0.623-2.014,0.19   l-5.287-3.649C21.354,38.101,21.268,36.909,22.006,36.224z"/>
</g>
</svg>